Simulation
nRows=16
nColumns=15
endheader
time  TH_x TH_y TH_z SC_y  SC_z  SC_x  AC_y  AC_z  AC_x  GH_y  GH_z  GH_yy  EL_x  PS_y
2.0  0.000000  0.000000  0.000000  -30.115677334650155  2.9375817550978627  18.24220730519602  56.940149795024986  9.85450638914368  2.709170365419589  60.090228982418594  48.40400254749622  -60.637792478604965  23.01493644086563  0.000000
2.04  0.000000  0.000000  0.000000  -30.128679539182354  2.8821455222307275  18.310318636637053  56.99908607428936  9.811361444740408  2.548310730516507  60.78656856614286  48.27956423832064  -61.8443283720187  22.94067616510936  0.000000
2.08  0.000000  0.000000  0.000000  -30.1178241990732  2.8207127224748807  18.331280452165597  57.04853178162134  9.803934882944471  2.4377275338135536  61.66721290562795  48.1307434777191  -63.38898236046609  22.923828350359702  0.000000
2.12  0.000000  0.000000  0.000000  -30.047401408122777  2.7409643615044703  18.281167671798084  57.10034688032834  9.8301456673369  2.3780964498277455  62.719492479534374  47.93038875982273  -65.23232486868719  22.95902789665587  0.000000
2.16  0.000000  0.000000  0.000000  -29.87986074857495  2.636071813348779  18.128853269923685  57.16497857718926  9.88561408460347  2.3675730036119784  63.90981489785091  47.66827092880121  -67.23174382515614  23.030857716090402  0.000000
2.2  0.000000  0.000000  0.000000  -29.58693306516201  2.511938204577515  17.840451336906526  57.25102451529648  9.961458548638396  2.4044440767010795  65.17705979979449  47.35627891945623  -69.1829413378169  23.124872889042912  0.000000
2.24  0.000000  0.000000  0.000000  -29.152718503452107  2.3751680098049763  17.39817009573176  57.364184058448444  10.046479603110054  2.4836910394831153  66.47155707753579  47.010998084666554  -70.91570988924046  23.221746883072502  0.000000
2.2800000000000002  0.000000  0.000000  0.000000  -28.60087833861612  2.2349434002617206  16.819186655300864  57.50648081842168  10.13176487314158  2.601283766066913  67.77619246412466  46.64963599375763  -72.34853573787198  23.294440602201608  0.000000
2.32  0.000000  0.000000  0.000000  -27.97005166737429  2.0963076755869734  16.134302053816107  57.66988282136669  10.217346097157996  2.7458015352408967  69.09889946755419  46.295657865290146  -73.48053160085512  23.31584964609195  0.000000
2.36  0.000000  0.000000  0.000000  -27.327709723097858  1.9586648856759088  15.410853169606199  57.84881339232209  10.305843247622777  2.902862582933503  70.46208458269355  45.96427938238654  -74.35818583718866  23.262397340318874  0.000000
2.4  0.000000  0.000000  0.000000  -26.72517573655828  1.8211909330273646  14.699933130080462  58.029072080421535  10.405368851799143  3.053313719648425  71.86385354485134  45.677167794413705  -75.02933017018576  23.138991517388696  0.000000
2.44  0.000000  0.000000  0.000000  -26.225878246609664  1.6752842341479812  14.068689292388196  58.20869782925972  10.527442238337436  3.1760451621503214  73.29910381842957  45.442405725782145  -75.54454043878654  22.97268507469591  0.000000
2.48  0.000000  0.000000  0.000000  -25.865679212091916  1.5164283911620726  13.552390511077292  58.385297662014224  10.68554514779606  3.2558221433866503  74.74758017156265  45.26905377555084  -75.93962957388135  22.802521057485816  0.000000
2.52  0.000000  0.000000  0.000000  -25.65172781006065  1.348581532443151  13.163890119283408  58.55932669582091  10.876414964421084  3.295358901712397  76.17198264103232  45.15847217155506  -76.21916971690149  22.657011611020163  0.000000
2.56  0.000000  0.000000  0.000000  -25.53116924102731  1.1873567040506066  12.879800953874557  58.72319806120169  11.072174390171668  3.3189329399883953  77.51178552341084  45.099168641410415  -76.35081833677721  22.540003548977875  0.000000
2.6  0.000000  0.000000  0.000000  -25.413141107456042  1.0597565495557189  12.642611393853977  58.8576674472006  11.226135400456677  3.3674093982755644  78.67765953112067  45.07441156326483  -76.2737610402764  22.44475969867038  0.000000
